<mxfile host="app.diagrams.net" agent="Mozilla/5.0 (Windows NT 10.0; Win64; x64) AppleWebKit/537.36 (KHTML, like Gecko) Chrome/140.0.0.0 Safari/537.36" version="28.2.5">
  <diagram name="Page-1" id="5LkDsE9IEP7sCrPTsYvC">
    <mxGraphModel dx="772" dy="408" grid="1" gridSize="10" guides="1" tooltips="1" connect="1" arrows="1" fold="1" page="1" pageScale="1" pageWidth="850" pageHeight="1100" math="0" shadow="0">
      <root>
        <mxCell id="0" />
        <mxCell id="1" parent="0" />
        <mxCell id="oSdDuHe0G6yUf55kWygO-3" value="" style="edgeStyle=orthogonalEdgeStyle;rounded=0;orthogonalLoop=1;jettySize=auto;html=1;" edge="1" parent="1" source="oSdDuHe0G6yUf55kWygO-1" target="oSdDuHe0G6yUf55kWygO-2">
          <mxGeometry relative="1" as="geometry" />
        </mxCell>
        <mxCell id="oSdDuHe0G6yUf55kWygO-1" value="START" style="strokeWidth=2;html=1;shape=mxgraph.flowchart.terminator;whiteSpace=wrap;fontSize=14;" vertex="1" parent="1">
          <mxGeometry x="373" y="40" width="105" height="50" as="geometry" />
        </mxCell>
        <mxCell id="oSdDuHe0G6yUf55kWygO-5" value="" style="edgeStyle=orthogonalEdgeStyle;rounded=0;orthogonalLoop=1;jettySize=auto;html=1;" edge="1" parent="1" source="oSdDuHe0G6yUf55kWygO-2" target="oSdDuHe0G6yUf55kWygO-4">
          <mxGeometry relative="1" as="geometry" />
        </mxCell>
        <mxCell id="oSdDuHe0G6yUf55kWygO-2" value="define f(x)&lt;div&gt;define max iter&lt;/div&gt;" style="verticalLabelPosition=middle;verticalAlign=middle;html=1;shape=hexagon;perimeter=hexagonPerimeter2;arcSize=6;size=0.27;labelPosition=center;align=center;fontSize=14;" vertex="1" parent="1">
          <mxGeometry x="340" y="150" width="170" height="80" as="geometry" />
        </mxCell>
        <mxCell id="oSdDuHe0G6yUf55kWygO-7" value="" style="edgeStyle=orthogonalEdgeStyle;rounded=0;orthogonalLoop=1;jettySize=auto;html=1;" edge="1" parent="1" source="oSdDuHe0G6yUf55kWygO-4" target="oSdDuHe0G6yUf55kWygO-6">
          <mxGeometry relative="1" as="geometry" />
        </mxCell>
        <mxCell id="oSdDuHe0G6yUf55kWygO-4" value="define x = g(y, z)&lt;div&gt;define y = g(x, z)&lt;/div&gt;&lt;div&gt;......&lt;/div&gt;" style="verticalLabelPosition=middle;verticalAlign=middle;html=1;shape=hexagon;perimeter=hexagonPerimeter2;arcSize=6;size=0.27;labelPosition=center;align=center;fontSize=14;" vertex="1" parent="1">
          <mxGeometry x="340" y="290" width="170" height="80" as="geometry" />
        </mxCell>
        <mxCell id="oSdDuHe0G6yUf55kWygO-9" value="" style="edgeStyle=orthogonalEdgeStyle;rounded=0;orthogonalLoop=1;jettySize=auto;html=1;" edge="1" parent="1" source="oSdDuHe0G6yUf55kWygO-6" target="oSdDuHe0G6yUf55kWygO-8">
          <mxGeometry relative="1" as="geometry" />
        </mxCell>
        <mxCell id="oSdDuHe0G6yUf55kWygO-13" value="&lt;font style=&quot;font-size: 14px;&quot;&gt;TRUE&lt;/font&gt;" style="edgeLabel;html=1;align=center;verticalAlign=middle;resizable=0;points=[];" vertex="1" connectable="0" parent="oSdDuHe0G6yUf55kWygO-9">
          <mxGeometry x="-0.1897" relative="1" as="geometry">
            <mxPoint as="offset" />
          </mxGeometry>
        </mxCell>
        <mxCell id="oSdDuHe0G6yUf55kWygO-12" value="" style="edgeStyle=orthogonalEdgeStyle;rounded=0;orthogonalLoop=1;jettySize=auto;html=1;" edge="1" parent="1" source="oSdDuHe0G6yUf55kWygO-6" target="oSdDuHe0G6yUf55kWygO-10">
          <mxGeometry relative="1" as="geometry" />
        </mxCell>
        <mxCell id="oSdDuHe0G6yUf55kWygO-14" value="&lt;font style=&quot;font-size: 14px;&quot;&gt;FALSE&lt;/font&gt;" style="edgeLabel;html=1;align=center;verticalAlign=middle;resizable=0;points=[];" vertex="1" connectable="0" parent="oSdDuHe0G6yUf55kWygO-12">
          <mxGeometry x="-0.3295" y="-2" relative="1" as="geometry">
            <mxPoint as="offset" />
          </mxGeometry>
        </mxCell>
        <mxCell id="oSdDuHe0G6yUf55kWygO-6" value="i = max iter&lt;div&gt;i &amp;lt; 0?&lt;/div&gt;" style="strokeWidth=2;html=1;shape=mxgraph.flowchart.decision;whiteSpace=wrap;fontSize=14;" vertex="1" parent="1">
          <mxGeometry x="348" y="430" width="153.13" height="140" as="geometry" />
        </mxCell>
        <mxCell id="oSdDuHe0G6yUf55kWygO-8" value="new_x = g(y, z)&lt;div&gt;new_y = g(new_x, z)&lt;/div&gt;&lt;div&gt;......&lt;/div&gt;" style="rounded=1;whiteSpace=wrap;html=1;absoluteArcSize=1;arcSize=0;strokeWidth=2;fontSize=14;" vertex="1" parent="1">
          <mxGeometry x="345" y="630" width="160" height="80" as="geometry" />
        </mxCell>
        <mxCell id="oSdDuHe0G6yUf55kWygO-10" value="END" style="strokeWidth=2;html=1;shape=mxgraph.flowchart.terminator;whiteSpace=wrap;fontSize=14;" vertex="1" parent="1">
          <mxGeometry x="610" y="475" width="105" height="50" as="geometry" />
        </mxCell>
        <mxCell id="oSdDuHe0G6yUf55kWygO-11" style="edgeStyle=orthogonalEdgeStyle;rounded=0;orthogonalLoop=1;jettySize=auto;html=1;exitX=0;exitY=0.5;exitDx=0;exitDy=0;entryX=0;entryY=0.5;entryDx=0;entryDy=0;entryPerimeter=0;" edge="1" parent="1" source="oSdDuHe0G6yUf55kWygO-8" target="oSdDuHe0G6yUf55kWygO-6">
          <mxGeometry relative="1" as="geometry">
            <Array as="points">
              <mxPoint x="270" y="670" />
              <mxPoint x="270" y="500" />
            </Array>
          </mxGeometry>
        </mxCell>
      </root>
    </mxGraphModel>
  </diagram>
</mxfile>
